<?xml version="1.0" standalone="no"?>
<!DOCTYPE svg PUBLIC "-//W3C//DTD SVG 20010904//EN"
 "http://www.w3.org/TR/2001/REC-SVG-20010904/DTD/svg10.dtd">
<svg version="1.0" xmlns="http://www.w3.org/2000/svg"
 width="512.000000pt" height="512.000000pt" viewBox="0 0 512.000000 512.000000"
 preserveAspectRatio="xMidYMid meet">

<g transform="translate(0.000000,512.000000) scale(0.100000,-0.100000)"
fill="#ae02cc" stroke="none">
<path d="M1582 4071 c-255 -153 -467 -282 -473 -288 -6 -6 -8 -185 -7 -466 l3
-457 532 319 532 318 338 -189 c186 -104 433 -243 548 -307 116 -65 380 -213
587 -330 208 -116 384 -214 393 -217 13 -5 15 40 15 392 l0 399 -128 69 c-70
38 -176 97 -237 131 -60 34 -155 87 -210 117 -55 31 -170 95 -255 143 -85 49
-216 122 -290 163 -74 41 -189 105 -255 142 -303 170 -614 340 -621 340 -5 0
-217 -126 -472 -279z"/>
<path d="M1330 2897 l-225 -134 -3 -209 -2 -209 30 -17 c16 -9 30 -13 30 -7 0
11 59 49 78 49 15 0 17 -71 2 -86 -8 -8 -7 -14 2 -21 33 -25 310 -185 314
-181 2 3 3 217 2 476 l-3 472 -225 -133z m170 -35 c0 -46 -2 -49 -40 -71 l-40
-22 0 48 c0 46 2 50 38 71 20 12 38 22 40 22 1 0 2 -22 2 -48z m-250 -135 c0
-37 -6 -47 -40 -70 -39 -27 -50 -22 -50 23 0 34 5 43 37 64 43 29 53 26 53
-17z m250 -62 c0 -40 -4 -47 -32 -65 -18 -11 -36 -20 -40 -20 -5 0 -8 20 -8
44 0 39 4 47 33 64 17 11 35 21 40 21 4 1 7 -19 7 -44z m-252 -137 c-2 -35 -9
-46 -37 -65 -19 -13 -38 -23 -42 -23 -5 0 -9 20 -9 44 0 39 4 47 33 64 50 31
59 28 55 -20z m252 -62 c0 -40 -3 -46 -36 -65 -19 -12 -37 -21 -40 -21 -2 0
-4 20 -4 45 0 40 4 47 33 65 17 11 35 20 40 20 4 0 7 -20 7 -44z m0 -210 c0
-40 -4 -47 -34 -65 -18 -12 -36 -21 -40 -21 -3 0 -6 20 -6 45 0 40 4 47 33 65
17 11 35 20 40 20 4 0 7 -20 7 -44z"/>
<path d="M3315 2289 c-458 -258 -1153 -639 -1165 -639 -5 0 -241 140 -525 310
-284 171 -518 310 -521 310 -2 0 -4 -208 -4 -463 l0 -462 473 -284 c259 -156
477 -284 482 -284 6 0 66 32 135 70 69 39 258 143 420 233 162 90 399 222 525
293 127 71 275 155 330 185 55 30 150 83 210 117 61 34 170 94 243 134 l132
73 -2 236 -3 237 -145 82 c-80 45 -152 82 -160 82 -8 0 -199 -103 -425 -230z"/>
</g>
</svg>
